<?xml version="1.0" encoding="iso-8859-1"?>
<!-- Uploaded to: SVG Repo, www.svgrepo.com, Generator: SVG Repo Mixer Tools -->
<svg height="800px" width="800px" version="1.1" id="Layer_1" xmlns="http://www.w3.org/2000/svg" xmlns:xlink="http://www.w3.org/1999/xlink" 
	 viewBox="0 0 512 512" xml:space="preserve">
<g transform="translate(1 1)">
	<path style="fill:#63D3FD;" d="M434.2,203.8H75.8c-9.387,0-17.067-7.68-17.067-17.067c0-9.387,7.68-17.067,17.067-17.067h358.4
		c9.387,0,17.067,7.68,17.067,17.067C451.267,196.12,443.587,203.8,434.2,203.8"/>
	<path style="fill:#3DB9F9;" d="M434.2,169.667h-17.067c9.387,0,17.067,7.68,17.067,17.067c0,9.387-7.68,17.067-17.067,17.067H434.2
		c9.387,0,17.067-7.68,17.067-17.067C451.267,177.347,443.587,169.667,434.2,169.667"/>
	<path style="fill:#FFFFFF;" d="M75.8,169.667h17.067c-9.387,0-17.067,7.68-17.067,17.067c0,9.387,7.68,17.067,17.067,17.067H75.8
		c-9.387,0-17.067-7.68-17.067-17.067C58.733,177.347,66.413,169.667,75.8,169.667"/>
	<path style="fill:#FFE100;" d="M408.6,169.667c18.773,0,34.133-15.36,34.133-34.133S427.373,101.4,408.6,101.4
		c0-16.213-11.093-29.013-25.6-33.28v-0.853c0-18.773-15.36-34.133-34.133-34.133h-0.853c-3.413-14.507-17.067-25.6-33.28-25.6
		c-12.8,0-23.893,7.68-29.867,17.92C278.893,15.213,267.8,7.533,255,7.533c-11.947,0-22.187,5.973-28.16,14.507
		c-4.267-8.533-12.8-14.507-23.04-14.507c-14.507,0-25.6,11.093-25.6,25.6v0.853c-2.56,0-5.12-0.853-8.533-0.853
		c-18.773,0-34.133,15.36-34.133,34.133c-18.773,0-34.133,15.36-34.133,34.133c-18.773,0-34.133,15.36-34.133,34.133
		s15.36,34.133,34.133,34.133H408.6z"/>
	<path style="fill:#FFFFFF;" d="M92.867,135.533c0-18.773,15.36-34.133,34.133-34.133c0-18.773,15.36-34.133,34.133-34.133
		c0-18.773,15.36-34.133,34.133-34.133c3.413,0,5.973,0.853,8.533,0.853v-0.853c0-9.387,5.12-17.92,12.8-22.187
		c-3.413-1.707-8.533-3.413-12.8-3.413c-14.507,0-25.6,11.093-25.6,25.6v0.853c-2.56,0-5.12-0.853-8.533-0.853
		c-18.773,0-34.133,15.36-34.133,34.133c-18.773,0-34.133,15.36-34.133,34.133c-18.773,0-34.133,15.36-34.133,34.133
		s15.36,34.133,34.133,34.133H127C108.227,169.667,92.867,154.307,92.867,135.533"/>
	<path style="fill:#FFA800;" d="M408.6,101.4c0-16.213-11.093-29.013-25.6-33.28v-0.853c0-18.773-15.36-34.133-34.133-34.133h-0.853
		c-3.413-14.507-17.067-25.6-33.28-25.6c-4.267,0-8.533,0.853-12.8,2.56c10.24,4.267,17.92,12.8,20.48,23.04h0.853
		c18.773,0,34.133,15.36,34.133,34.133v0.853c14.507,3.413,25.6,17.067,25.6,33.28c18.773,0,34.133,15.36,34.133,34.133
		s-15.36,34.133-34.133,34.133h25.6c18.773,0,34.133-15.36,34.133-34.133S427.373,101.4,408.6,101.4"/>
	<path style="fill:#FFE100;" d="M393.24,502.467H116.76c-13.653,0-24.747-10.24-25.6-23.893L75.8,203.8h358.4l-15.36,274.773
		C417.987,492.227,406.893,502.467,393.24,502.467"/>
	<path style="fill:#FFA800;" d="M417.133,203.8l-15.36,274.773c-0.853,13.653-11.947,23.893-25.6,23.893h17.067
		c13.653,0,24.747-10.24,25.6-23.893L434.2,203.8H417.133z"/>
	<path style="fill:#FFFFFF;" d="M92.867,203.8l15.36,274.773c0.853,13.653,11.947,23.893,25.6,23.893H116.76
		c-13.653,0-24.747-10.24-25.6-23.893L75.8,203.8H92.867z"/>
	<g>
		<polygon style="fill:#FFE100;" points="118.467,203.8 157.72,203.8 169.667,502.467 130.413,502.467 		"/>
		<path style="fill:#FFE100;" d="M229.4,368.493v133.973h51.2V368.493c-7.68,3.413-16.213,5.973-25.6,5.973
			S237.08,372.76,229.4,368.493"/>
	</g>
	<path style="fill:#63D3FD;" d="M314.733,314.733C314.733,281.453,288.28,255,255,255s-59.733,26.453-59.733,59.733
		S221.72,374.467,255,374.467S314.733,348.013,314.733,314.733"/>
	<path d="M393.24,511H116.76c-17.92,0-33.28-14.507-34.133-32.427l-15.36-273.92c0-2.56,0.853-4.267,2.56-5.973
		c1.707-2.56,3.413-3.413,5.973-3.413h358.4c2.56,0,4.267,0.853,5.973,2.56s2.56,4.267,2.56,5.973l-15.36,274.773
		C425.667,496.493,411.16,511,393.24,511z M85.187,212.333l15.36,265.387c0.853,9.387,7.68,16.213,17.067,16.213H393.24
		c9.387,0,16.213-6.827,17.067-16.213l14.507-265.387H85.187z"/>
	<path d="M408.6,178.2H101.4c-23.893,0-42.667-18.773-42.667-42.667c0-20.48,15.36-38.4,34.987-41.813
		c3.413-17.067,17.067-30.72,34.133-34.133c3.413-20.48,22.187-35.84,42.667-34.987C173.933,10.093,187.587-1,203.8-1
		c9.387,0,17.92,3.413,23.893,10.24C235.373,2.413,244.76-1,255-1c11.093,0,22.187,4.267,29.867,12.8
		C292.547,3.267,303.64-1,314.733-1C331.8-1,347.16,9.24,353.987,24.6c19.627,2.56,34.987,17.92,37.547,37.547
		c12.8,5.973,22.187,17.067,24.747,31.573c19.627,3.413,34.987,21.333,34.987,41.813C451.267,159.427,432.493,178.2,408.6,178.2z
		 M169.667,41.667c-14.507,0-25.6,11.093-25.6,25.6c0,5.12-3.413,8.533-8.533,8.533c-14.507,0-25.6,11.093-25.6,25.6
		c0,5.12-3.413,8.533-8.533,8.533c-14.507,0-25.6,11.093-25.6,25.6c0,14.507,11.093,25.6,25.6,25.6h307.2
		c14.507,0,25.6-11.093,25.6-25.6c0-14.507-11.093-25.6-25.6-25.6c-5.12,0-8.533-3.413-8.533-8.533
		c0-11.947-7.68-22.187-19.627-24.747c-3.413-0.853-5.973-4.267-5.973-8.533c0,0,0-0.853,0-1.707
		c0-13.653-11.093-24.747-25.6-24.747c0,0,0,0-0.853,0c-4.267,0-7.68-2.56-8.533-6.827c-2.56-11.093-12.8-18.773-24.747-18.773
		c-9.387,0-17.92,5.12-22.187,13.653c-3.413,5.12-11.947,5.12-15.36,0c-4.267-8.533-12.8-13.653-22.187-13.653
		c-8.533,0-16.213,4.267-21.333,11.093c-1.707,2.56-4.267,4.267-7.68,3.413c-3.413,0-5.973-1.707-6.827-5.12
		c-2.56-5.973-8.533-9.387-15.36-9.387c-9.387,0-17.067,7.68-17.067,17.067c0,0,0,0,0,0.853c0,2.56-0.853,5.12-3.413,6.827
		c-1.707,1.707-5.12,2.56-7.68,1.707C173.933,41.667,171.373,41.667,169.667,41.667z"/>
	<path d="M383,121.88c-1.707,0-4.267-0.853-5.973-2.56c-3.413-3.413-4.267-8.533-0.853-11.947
		c7.68-9.387,19.627-14.507,31.573-14.507c5.12,0,8.533,3.413,8.533,8.533s-3.413,8.533-8.533,8.533
		c-7.68,0-14.507,3.413-19.627,8.533C388.12,120.173,385.56,121.88,383,121.88z"/>
	<path d="M319,58.733c-1.707,0-2.56,0-4.267-0.853c-4.267-2.56-5.12-7.68-3.413-11.947c8.533-12.8,22.187-21.333,37.547-21.333
		c5.12,0,8.533,3.413,8.533,8.533s-3.413,8.533-8.533,8.533c-9.387,0-17.92,5.12-22.187,12.8
		C324.973,57.027,322.413,58.733,319,58.733z"/>
	<path d="M165.4,92.867c-2.56,0-5.973-1.707-7.68-4.267c-4.267-7.68-12.8-12.8-22.187-12.8c-5.12,0-8.533-3.413-8.533-8.533
		s3.413-8.533,8.533-8.533c15.36,0,29.013,8.533,36.693,21.333c2.56,4.267,0.853,9.387-2.56,11.947
		C167.96,92.867,166.253,92.867,165.4,92.867z"/>
	<path d="M144.92,144.067c-2.56,0-4.267-0.853-5.973-2.56c-3.413-3.413-3.413-8.533,0-11.947
		c11.093-11.093,26.453-15.36,40.96-11.093c4.267,0.853,7.68,5.973,5.973,10.24c-0.853,4.267-5.973,6.827-10.24,5.973
		c-8.533-2.56-17.92,0-24.747,6.827C149.187,143.213,147.48,144.067,144.92,144.067z"/>
	<path d="M306.2,101.4c-1.707,0-3.413-0.853-4.267-1.707c-4.267-2.56-5.12-7.68-2.56-11.947C303.64,80.92,313.88,75.8,323.267,75.8
		l0,0c9.387,0,17.92,4.267,23.893,11.947c2.56,4.267,1.707,9.387-2.56,11.947c-4.267,2.56-9.387,1.707-11.947-2.56
		c-2.56-4.267-6.827-5.12-9.387-5.12c-5.12,0-9.387,2.56-10.24,4.267C311.32,99.693,308.76,101.4,306.2,101.4z"/>
	<path d="M203.8,84.333c-1.707,0-3.413-0.853-4.267-1.707c-4.267-2.56-5.12-7.68-2.56-11.947
		c4.267-6.827,14.507-11.947,23.893-11.947S239.64,63,244.76,70.68c2.56,4.267,1.707,9.387-2.56,11.947
		c-4.267,2.56-9.387,1.707-11.947-2.56c-1.707-3.413-5.973-4.267-8.533-4.267c-5.12,0-9.387,2.56-10.24,4.267
		C208.92,82.627,206.36,84.333,203.8,84.333z"/>
	<path d="M255,144.067c-1.707,0-3.413-0.853-4.267-1.707c-4.267-2.56-5.12-7.68-2.56-11.947c5.12-7.68,14.507-11.947,24.747-11.947
		l0,0c9.387,0,17.92,4.267,23.893,11.947c2.56,4.267,1.707,9.387-2.56,11.947s-9.387,1.707-11.947-2.56
		c-2.56-4.267-6.827-4.267-9.387-5.12c-5.12,0-9.387,2.56-10.24,4.267C260.12,142.36,257.56,144.067,255,144.067z"/>
	<path d="M229.4,38.253c-4.267,0-7.68-3.413-8.533-7.68c-0.853-8.533-8.533-14.507-17.067-14.507c-5.12,0-8.533-3.413-8.533-8.533
		S198.68-1,203.8-1c17.067,0,31.573,12.8,34.133,29.013c0,5.12-2.56,9.387-7.68,9.387C230.253,38.253,229.4,38.253,229.4,38.253z"/>
	<path d="M255,383c-37.547,0-68.267-30.72-68.267-68.267s30.72-68.267,68.267-68.267s68.267,30.72,68.267,68.267
		S292.547,383,255,383z M255,263.533c-28.16,0-51.2,23.04-51.2,51.2c0,28.16,23.04,51.2,51.2,51.2s51.2-23.04,51.2-51.2
		C306.2,286.573,283.16,263.533,255,263.533z"/>
	<path d="M280.6,323.267c-5.12,0-8.533-3.413-8.533-8.533c0-9.387-7.68-17.067-17.067-17.067c-5.12,0-8.533-3.413-8.533-8.533
		c0-5.12,3.413-8.533,8.533-8.533c18.773,0,34.133,15.36,34.133,34.133C289.133,319.853,285.72,323.267,280.6,323.267z"/>
	<path d="M255,348.867c-18.773,0-34.133-15.36-34.133-34.133c0-5.12,3.413-8.533,8.533-8.533c5.12,0,8.533,3.413,8.533,8.533
		c0,9.387,7.68,17.067,17.067,17.067c5.12,0,8.533,3.413,8.533,8.533C263.533,345.453,260.12,348.867,255,348.867z"/>
	<path d="M434.2,212.333H75.8c-14.507,0-25.6-11.093-25.6-25.6c0-14.507,11.093-25.6,25.6-25.6h358.4
		c14.507,0,25.6,11.093,25.6,25.6C459.8,201.24,448.707,212.333,434.2,212.333z M75.8,178.2c-5.12,0-8.533,3.413-8.533,8.533
		c0,5.12,3.413,8.533,8.533,8.533h358.4c5.12,0,8.533-3.413,8.533-8.533c0-5.12-3.413-8.533-8.533-8.533H75.8z"/>
	<path d="M383.853,511H344.6c-2.56,0-4.267-0.853-5.973-2.56s-2.56-4.267-2.56-5.973L348.013,203.8c0-4.267,4.267-8.533,8.533-8.533
		H395.8c2.56,0,4.267,0.853,5.973,2.56c1.707,1.707,2.56,4.267,2.56,5.973l-11.947,298.667C392.387,507.587,388.12,511,383.853,511z
		 M353.133,493.933h22.187l11.093-281.6h-22.187L353.133,493.933z"/>
	<path d="M169.667,511h-39.253c-4.267,0-8.533-3.413-8.533-8.533L109.933,203.8c0-2.56,0.853-4.267,2.56-5.973
		c1.707-1.707,3.413-2.56,5.973-2.56h39.253c4.267,0,8.533,3.413,8.533,8.533L178.2,502.467c0,2.56-0.853,4.267-2.56,5.973
		S172.227,511,169.667,511z M138.093,493.933h23.04l-11.093-281.6H127L138.093,493.933z"/>
	<path d="M280.6,269.507c-0.853,0-2.56,0-3.413-0.853c-13.653-6.827-29.867-6.827-43.52,0c-2.56,0.853-5.973,0.853-8.533-0.853
		s-4.267-4.267-4.267-6.827V203.8c0-5.12,3.413-8.533,8.533-8.533h51.2c5.12,0,8.533,3.413,8.533,8.533v57.173
		c0,2.56-1.707,5.973-4.267,6.827C284.013,268.653,282.307,269.507,280.6,269.507z M255,246.467c5.973,0,11.093,0.853,17.067,2.56
		v-36.693h-34.133v36.693C243.907,247.32,249.027,246.467,255,246.467z"/>
	<path d="M280.6,511h-51.2c-5.12,0-8.533-3.413-8.533-8.533V368.493c0-2.56,1.707-5.973,4.267-6.827
		c2.56-1.707,5.973-1.707,8.533-0.853c13.653,6.827,29.867,6.827,43.52,0c2.56-0.853,5.973-0.853,8.533,0.853
		c2.56,1.707,4.267,4.267,4.267,6.827v133.973C289.133,507.587,285.72,511,280.6,511z M237.933,493.933h34.133V380.44
		c-11.093,2.56-23.04,2.56-34.133,0V493.933z"/>
</g>
</svg>